<?xml version="1.0" encoding="utf-8" ?>
<svg xmlns="http://www.w3.org/2000/svg" xmlns:xlink="http://www.w3.org/1999/xlink" width="1024" height="1024">
	<path fill="#0087B6" d="M429.85 469.21Q432.17 469.097 434.492 469.049C447.546 468.817 456.817 472.374 466.143 481.423L466.245 471.391Q479 471.593 491.755 471.416L491.792 533.431C491.802 547.646 493.209 565.765 489.916 579.404Q489.525 581.014 489.029 582.594Q488.532 584.174 487.933 585.718Q487.333 587.262 486.633 588.763Q485.932 590.265 485.134 591.716Q484.336 593.168 483.444 594.563Q482.552 595.959 481.569 597.292Q480.587 598.626 479.518 599.892Q478.45 601.158 477.3 602.35C466.51 613.577 451.787 618.875 436.432 619.048C418.984 619.244 403.303 613.631 390.726 601.374L395.461 594.107C398.041 590.164 400.933 586.42 403.532 582.481C413.086 588.852 421.945 593.973 433.748 594.333C442.254 594.593 451.026 592.165 457.203 586.058C465.074 578.277 465.65 568.977 465.626 558.663C458.233 566.208 450.686 570.932 440.024 572.334C427.696 573.956 414.792 570.183 404.976 562.603Q403.985 561.832 403.033 561.013Q402.081 560.194 401.169 559.33Q400.258 558.465 399.39 557.557Q398.523 556.65 397.7 555.701Q396.877 554.752 396.102 553.764Q395.327 552.776 394.601 551.751Q393.874 550.726 393.199 549.667Q392.524 548.609 391.901 547.518Q391.278 546.427 390.709 545.308Q390.14 544.188 389.627 543.042Q389.113 541.896 388.656 540.726Q388.199 539.557 387.799 538.366Q387.4 537.175 387.059 535.966Q386.718 534.758 386.437 533.534Q386.155 532.31 385.933 531.074Q385.712 529.838 385.551 528.592C383.734 514.004 386.953 499.471 396.158 487.843C404.81 476.915 416.082 470.816 429.85 469.21ZM444.228 547.521Q444.891 547.386 445.546 547.218Q446.202 547.05 446.848 546.85Q447.495 546.65 448.131 546.419Q448.767 546.188 449.39 545.926Q450.014 545.663 450.624 545.371Q451.235 545.078 451.83 544.756Q452.425 544.434 453.003 544.083Q453.582 543.732 454.142 543.353Q454.703 542.974 455.244 542.568Q455.785 542.162 456.306 541.73Q456.827 541.298 457.326 540.841Q457.825 540.384 458.301 539.903Q458.776 539.422 459.228 538.918Q459.68 538.414 460.106 537.889Q460.533 537.363 460.933 536.818Q461.333 536.272 461.705 535.707Q462.078 535.143 462.423 534.56Q462.768 533.978 463.083 533.38Q463.399 532.781 463.685 532.168Q463.971 531.555 464.226 530.928Q464.481 530.301 464.706 529.663Q464.93 529.025 465.123 528.376Q465.316 527.728 465.476 527.07Q465.637 526.413 465.765 525.748Q465.893 525.084 465.989 524.414Q466.084 523.744 466.147 523.071Q466.209 522.397 466.239 521.721Q466.268 521.045 466.264 520.368Q466.26 519.692 466.223 519.016Q466.186 518.34 466.116 517.667Q466.045 516.994 465.942 516.326Q465.839 515.657 465.703 514.994Q465.567 514.331 465.399 513.676Q465.231 513.02 465.03 512.374Q464.83 511.728 464.598 511.092Q464.367 510.456 464.104 509.833Q463.841 509.209 463.548 508.599Q463.255 507.989 462.933 507.394Q462.61 506.799 462.259 506.221Q461.907 505.643 461.528 505.082Q461.149 504.522 460.742 503.981Q460.336 503.44 459.904 502.92Q459.471 502.399 459.014 501.901Q458.556 501.402 458.075 500.927Q457.593 500.451 457.089 500Q456.585 499.548 456.059 499.122Q455.534 498.696 454.988 498.297Q454.442 497.897 453.877 497.525Q453.312 497.152 452.729 496.808Q452.147 496.464 451.548 496.148Q450.949 495.833 450.336 495.548Q449.722 495.262 449.095 495.007Q448.469 494.752 447.83 494.529Q447.191 494.305 446.543 494.112Q445.894 493.92 445.237 493.76Q444.579 493.6 443.915 493.472Q443.25 493.344 442.58 493.249Q441.91 493.154 441.236 493.092Q440.563 493.03 439.887 493.001Q439.211 492.973 438.534 492.977Q437.857 492.981 437.182 493.019Q436.506 493.057 435.833 493.127Q435.16 493.198 434.491 493.302Q433.823 493.406 433.16 493.542Q432.498 493.678 431.843 493.847Q431.189 494.015 430.543 494.216Q429.897 494.416 429.262 494.648Q428.627 494.88 428.004 495.143Q427.382 495.406 426.772 495.699Q426.163 495.992 425.569 496.314Q424.975 496.637 424.397 496.988Q423.82 497.339 423.26 497.719Q422.701 498.098 422.16 498.504Q421.62 498.91 421.1 499.342Q420.58 499.775 420.082 500.232Q419.584 500.689 419.109 501.17Q418.634 501.651 418.183 502.155Q417.732 502.658 417.307 503.184Q416.881 503.709 416.482 504.254Q416.083 504.8 415.711 505.364Q415.339 505.929 414.995 506.511Q414.651 507.093 414.336 507.691Q414.021 508.289 413.736 508.902Q413.45 509.515 413.195 510.141Q412.941 510.767 412.717 511.405Q412.493 512.043 412.301 512.691Q412.108 513.339 411.948 513.996Q411.788 514.653 411.66 515.316Q411.532 515.98 411.437 516.649Q411.342 517.319 411.279 517.992Q411.217 518.665 411.188 519.34Q411.159 520.016 411.163 520.692Q411.167 521.368 411.204 522.043Q411.242 522.718 411.312 523.39Q411.382 524.063 411.485 524.731Q411.588 525.399 411.724 526.061Q411.86 526.723 412.028 527.378Q412.196 528.033 412.396 528.679Q412.596 529.324 412.827 529.96Q413.059 530.595 413.321 531.218Q413.583 531.841 413.876 532.45Q414.169 533.06 414.491 533.654Q414.813 534.249 415.164 534.826Q415.515 535.404 415.893 535.964Q416.272 536.524 416.678 537.065Q417.084 537.606 417.515 538.126Q417.947 538.646 418.404 539.144Q418.861 539.643 419.342 540.118Q419.822 540.593 420.326 541.044Q420.829 541.496 421.354 541.922Q421.879 542.348 422.424 542.747Q422.97 543.147 423.534 543.519Q424.098 543.892 424.68 544.236Q425.261 544.581 425.859 544.896Q426.457 545.212 427.07 545.497Q427.683 545.783 428.309 546.038Q428.935 546.294 429.572 546.518Q430.21 546.742 430.858 546.935Q431.506 547.128 432.163 547.288Q432.819 547.449 433.483 547.578Q434.147 547.706 434.816 547.802Q435.485 547.897 436.158 547.96Q436.832 548.023 437.507 548.052Q438.182 548.082 438.858 548.078Q439.534 548.075 440.209 548.038Q440.884 548.001 441.557 547.931Q442.229 547.862 442.897 547.759Q443.566 547.656 444.228 547.521Z"/>
	<path fill="#0087B6" d="M553.871 469.19C556.81 468.924 559.892 468.902 562.849 468.908C575.821 468.935 588.391 473.08 597.642 482.412C610.796 495.681 611.999 511.675 611.854 529.327C586.206 528.845 560.389 529.174 534.736 529.388C535.637 533.138 536.614 536.684 538.574 540.047Q538.908 540.61 539.269 541.156Q539.63 541.703 540.018 542.23Q540.405 542.758 540.818 543.266Q541.231 543.774 541.669 544.261Q542.106 544.749 542.567 545.214Q543.028 545.679 543.512 546.12Q543.995 546.562 544.499 546.98Q545.004 547.397 545.528 547.789Q546.052 548.182 546.595 548.547Q547.138 548.913 547.699 549.252Q548.259 549.591 548.835 549.901Q549.412 550.212 550.003 550.494Q550.594 550.776 551.198 551.029Q551.802 551.282 552.417 551.504Q553.033 551.727 553.659 551.919Q554.285 552.111 554.92 552.272C564.696 554.842 575.246 552.865 583.08 546.486C584.628 545.226 587.844 541.897 589.698 541.342C590.982 540.958 591.322 541.619 592.316 542.287C597.178 545.859 601.77 550.051 606.419 553.91C599.24 564.594 588.26 571.406 575.669 573.904C561.028 576.808 544.444 574.375 532.006 565.869C520.302 557.866 512.792 545.743 510.324 531.82Q510.075 530.461 509.894 529.091Q509.712 527.72 509.599 526.343Q509.486 524.966 509.441 523.585Q509.396 522.203 509.419 520.822Q509.443 519.44 509.534 518.061Q509.626 516.682 509.786 515.309Q509.946 513.936 510.174 512.573Q510.401 511.21 510.696 509.86Q510.991 508.51 511.352 507.176Q511.714 505.842 512.14 504.528Q512.567 503.213 513.059 501.922Q513.55 500.63 514.105 499.364Q514.66 498.098 515.276 496.862Q515.893 495.625 516.57 494.42Q517.247 493.215 517.983 492.046Q518.719 490.876 519.512 489.744C527.925 477.925 539.731 471.494 553.871 469.19ZM535.905 510.991Q549.924 510.637 563.947 510.704C571.431 510.695 579.125 510.335 586.573 511.021C584.724 503.773 581.995 497.346 575.319 493.232C571.086 490.623 564.669 488.977 559.637 489.681C552.513 490.316 546.319 492.768 541.707 498.501C538.709 502.228 537.245 506.47 535.905 510.991Z"/>
	<path fill="#0087B6" d="M833.613 469.191C836.641 468.915 839.739 468.771 842.778 468.799C855.854 468.917 868.035 472.988 877.318 482.443C890.176 495.541 890.976 512.073 890.904 529.341C873.314 528.942 855.631 529.321 838.031 529.325C830.341 529.326 822.152 529.9 814.521 529.016C815.556 533.152 816.555 537.089 818.868 540.739C822.697 546.782 828.736 550.883 835.691 552.468C843.041 554.143 853.167 553.264 859.513 548.919C862.897 546.603 865.678 543.563 869.17 541.346C870.732 541.515 871.467 542.347 872.715 543.27C876.869 546.994 881.305 550.483 885.59 554.061Q885.152 554.724 884.694 555.373Q884.036 556.302 883.333 557.196Q882.63 558.091 881.883 558.95Q881.136 559.809 880.348 560.63Q879.56 561.451 878.732 562.232Q877.904 563.012 877.038 563.751Q876.172 564.49 875.271 565.185Q874.37 565.88 873.436 566.529Q872.501 567.179 871.536 567.781Q870.57 568.384 869.576 568.938Q868.582 569.492 867.561 569.996Q866.541 570.5 865.497 570.952Q864.453 571.405 863.387 571.805Q862.322 572.206 861.238 572.553Q860.154 572.9 859.055 573.193Q857.955 573.487 856.842 573.725Q855.729 573.963 854.606 574.146C839.99 576.658 822.67 573.913 810.468 565.16Q809.441 564.409 808.453 563.608Q807.464 562.807 806.516 561.958Q805.568 561.11 804.663 560.216Q803.758 559.322 802.898 558.384Q802.038 557.447 801.225 556.468Q800.412 555.49 799.648 554.472Q798.884 553.454 798.171 552.401Q797.459 551.347 796.798 550.259Q796.138 549.172 795.533 548.053Q794.927 546.934 794.377 545.787Q793.827 544.64 793.334 543.467Q792.841 542.294 792.406 541.098Q791.971 539.902 791.596 538.687Q791.221 537.471 790.906 536.238Q790.591 535.006 790.336 533.759Q790.082 532.513 789.89 531.255C787.507 516.551 790.625 501.325 799.438 489.226C808.022 477.442 819.423 471.461 833.613 469.191ZM815.703 511.032C824.718 510.578 833.848 510.647 842.875 510.684C850.663 510.694 858.578 510.4 866.35 510.767C864.041 503.188 861.078 496.454 853.749 492.455C849.411 490.089 843.933 489.142 839.009 489.692C832.405 490.169 826.687 492.709 822.236 497.732C818.792 501.619 817.056 506.08 815.703 511.032Z"/>
	<path fill="#0087B6" d="M681.896 469.199C682.106 469.184 682.316 469.165 682.527 469.152C693.811 468.503 704.804 469.975 713.383 477.962C718.728 482.939 722.062 489.323 723.817 496.363C726.4 506.727 725.592 517.937 725.58 528.54C725.564 543.313 725.267 558.15 725.812 572.911C717.165 572.711 708.499 572.766 699.849 572.769L699.945 533.987C699.956 525.465 700.579 516.077 699.007 507.705C698.529 505.162 697.635 503.281 696.208 501.12C693.3 496.715 689.154 494.237 683.998 493.307C677.448 492.126 671.215 493.276 665.721 497.036C665.069 497.526 664.532 498.032 663.958 498.612C660.418 502.19 658.479 506.598 657.481 511.491C655.997 518.766 656.757 527.051 656.76 534.487L656.888 572.919Q644.006 572.658 631.124 572.895C632.115 562.143 631.279 550.553 631.278 539.728L631.224 471.4C639.442 471.519 648.655 472.368 656.774 471.148L656.891 483.105C657.053 482.878 657.212 482.65 657.379 482.426C663.406 474.322 672.204 470.635 681.896 469.199Z"/>
	<path fill="#0087B6" d="M292.181 471.376C301.729 471.923 311.501 471.506 321.07 471.505L374.59 471.451Q374.757 481.564 374.612 491.678C356.545 510.63 341.011 531.929 322.835 550.812C339.19 548.795 357.826 552.266 374.056 550.139Q373.894 561.507 374.372 572.866C346.476 572.358 318.533 572.906 290.629 572.761C291.059 565.672 290.993 558.495 291.133 551.392C299.738 540.971 308.65 530.827 317.396 520.527C325.244 511.283 332.91 501.752 341.342 493.03C325.002 492.575 308.474 492.731 292.129 492.978C292.758 485.927 292.234 478.471 292.181 471.376Z"/>
	<path fill="#0087B6" d="M207.041 471.408Q220.001 471.621 232.961 471.357C230.406 478.338 227.618 485.23 224.994 492.185C222.38 497.905 220.273 503.961 217.979 509.82L201.701 551.819C199 558.82 196.564 566.004 193.541 572.866Q179.048 572.708 164.554 572.852C162.921 568.351 160.855 563.964 159.087 559.505L145.298 524.945C138.066 507.179 131.149 489.29 123.71 471.608C132.866 471.131 142.216 471.499 151.4 471.398C153.939 479.354 157.197 487.161 160.209 494.955C166.46 511.129 172.945 527.208 178.765 543.544C187.998 519.516 196.745 494.991 207.041 471.408Z"/>
	<path fill="#0087B6" d="M801.422 255.997L801.731 256.31C800.269 259.567 796.912 262.626 794.877 265.647C790.311 272.424 788.902 282.325 790.439 290.296C794.804 312.932 819.215 321.1 837.498 329.707Q847.46 334.381 856.633 340.459C869.886 349.369 880.442 362.405 883.481 378.388C886.511 394.321 882.412 411.605 873.175 424.854C860.973 442.354 841.803 448.917 821.749 452.613Q817.68 453.182 813.594 453.619C823.841 448.632 834.276 445.49 843.577 438.532C855.056 429.944 862.828 417.912 864.76 403.588C869.269 370.143 829.522 359.862 807.147 346.378C799.585 341.821 792.21 335.857 786.841 328.8C778.945 318.42 775.128 305.416 776.977 292.435C779.185 276.929 789.28 265.051 801.422 255.997Z"/>
	<path fill="#0087B6" d="M246.195 471.455C254.766 471.607 263.356 471.463 271.928 471.435L272.004 540.753C272.013 550.546 272.931 563.671 271.789 572.906Q258.955 572.634 246.121 572.883C246.841 561.904 246.186 550.505 246.178 539.472L246.195 471.455Z"/>
	<path fill="#0087B6" d="M747.171 471.499L772.553 471.438L772.586 535.25C772.584 547.789 772.314 560.375 772.856 572.902Q759.962 572.717 747.068 572.886C748.013 539.168 747.023 505.246 747.171 471.499Z"/>
	<path fill="#0087B6" d="M794.013 354.955C794.219 354.976 794.426 354.992 794.631 355.016C803.056 356.003 828.407 369.334 835.772 374.55C839.887 377.464 843.758 380.894 846.853 384.891C852.361 392.004 854.703 400.538 853.484 409.472C851.679 422.695 844.147 432.504 833.76 440.435C831.201 441.933 828.454 443.19 825.8 444.516C831.157 439.743 835.727 434.912 839.161 428.542C844.116 419.352 844.956 408.705 841.852 398.738C835.657 378.843 811.49 364.23 794.013 354.955Z"/>
	<path fill="#0087B6" d="M755.952 428.429Q756.302 428.35 756.656 428.288Q757.009 428.226 757.365 428.181Q757.721 428.137 758.079 428.109Q758.437 428.082 758.796 428.072Q759.154 428.062 759.513 428.07Q759.872 428.078 760.23 428.103Q760.588 428.128 760.944 428.17Q761.301 428.213 761.654 428.273Q762.008 428.332 762.359 428.409Q762.709 428.486 763.056 428.58Q763.402 428.674 763.744 428.784Q764.085 428.895 764.42 429.022Q764.756 429.149 765.085 429.293Q765.414 429.436 765.736 429.595Q766.057 429.754 766.371 429.929Q766.685 430.103 766.989 430.293Q767.294 430.483 767.589 430.687Q767.884 430.891 768.169 431.109Q768.454 431.328 768.728 431.56Q769.001 431.792 769.264 432.037Q769.526 432.282 769.776 432.539Q770.026 432.797 770.263 433.066Q770.5 433.335 770.724 433.616Q770.948 433.896 771.157 434.187Q771.367 434.479 771.563 434.78Q771.758 435.081 771.939 435.391Q772.119 435.701 772.285 436.019Q772.45 436.338 772.599 436.664Q772.749 436.99 772.883 437.323Q773.016 437.657 773.133 437.996Q773.25 438.335 773.351 438.679Q773.451 439.024 773.535 439.373Q773.619 439.722 773.685 440.075Q773.752 440.427 773.801 440.783Q773.85 441.138 773.882 441.496Q773.914 441.853 773.929 442.212Q773.943 442.57 773.94 442.929Q773.937 443.288 773.917 443.646Q773.896 444.005 773.859 444.361Q773.821 444.718 773.766 445.073Q773.711 445.427 773.638 445.779Q773.566 446.13 773.476 446.478Q773.387 446.826 773.281 447.168Q773.175 447.511 773.052 447.848Q772.929 448.186 772.79 448.517Q772.651 448.847 772.496 449.171Q772.342 449.495 772.171 449.811Q772.001 450.126 771.815 450.434Q771.629 450.741 771.429 451.038Q771.229 451.336 771.014 451.624Q770.799 451.911 770.571 452.188Q770.343 452.465 770.101 452.73Q769.859 452.996 769.605 453.249Q769.351 453.502 769.085 453.743Q768.819 453.984 768.541 454.211Q768.263 454.439 767.975 454.652Q767.687 454.866 767.388 455.065Q767.09 455.265 766.782 455.449Q766.474 455.634 766.158 455.803Q765.842 455.972 765.517 456.126Q765.193 456.28 764.862 456.418Q764.531 456.556 764.193 456.677Q763.855 456.799 763.512 456.904Q763.169 457.009 762.821 457.097Q762.349 457.216 761.871 457.305Q761.392 457.393 760.909 457.449Q760.426 457.506 759.94 457.53Q759.454 457.555 758.967 457.547Q758.481 457.539 757.996 457.5Q757.511 457.46 757.03 457.388Q756.548 457.317 756.073 457.213Q755.598 457.11 755.13 456.976Q754.662 456.841 754.204 456.677Q753.747 456.512 753.301 456.317Q752.855 456.122 752.423 455.899Q751.991 455.675 751.574 455.423Q751.158 455.172 750.759 454.893Q750.36 454.615 749.981 454.31Q749.601 454.006 749.242 453.677Q748.883 453.349 748.547 452.997Q748.211 452.645 747.898 452.272Q747.586 451.899 747.299 451.506Q747.011 451.114 746.751 450.703Q746.49 450.292 746.257 449.865Q746.025 449.437 745.82 448.996Q745.616 448.554 745.441 448.1Q745.267 447.646 745.122 447.181Q744.978 446.716 744.865 446.243Q744.751 445.77 744.669 445.29Q744.587 444.811 744.537 444.327Q744.487 443.843 744.469 443.357Q744.451 442.87 744.465 442.384Q744.479 441.897 744.525 441.413Q744.571 440.929 744.649 440.448Q744.727 439.968 744.836 439.494Q744.946 439.02 745.086 438.554Q745.226 438.088 745.397 437.632Q745.568 437.177 745.769 436.733Q745.969 436.29 746.198 435.861Q746.428 435.432 746.685 435.019Q746.942 434.606 747.226 434.21Q747.51 433.815 747.819 433.439Q748.128 433.064 748.461 432.709Q748.795 432.355 749.151 432.023Q749.507 431.691 749.884 431.384Q750.261 431.076 750.657 430.794Q751.054 430.512 751.468 430.257Q751.883 430.002 752.313 429.775Q752.743 429.547 753.187 429.349Q753.632 429.15 754.088 428.982Q754.544 428.813 755.011 428.674Q755.477 428.536 755.952 428.429Z"/>
	<path fill="#0087B6" d="M258.458 428.067Q258.818 428.071 259.178 428.092Q259.538 428.114 259.896 428.153Q260.254 428.192 260.61 428.248Q260.966 428.305 261.318 428.379Q261.671 428.452 262.019 428.543Q262.368 428.634 262.712 428.742Q263.055 428.85 263.393 428.975Q263.731 429.1 264.063 429.241Q264.394 429.382 264.719 429.539Q265.043 429.696 265.359 429.869Q265.675 430.042 265.982 430.23Q266.29 430.418 266.587 430.621Q266.885 430.824 267.172 431.041Q267.46 431.259 267.736 431.49Q268.013 431.721 268.277 431.965Q268.542 432.209 268.795 432.466Q269.047 432.723 269.287 432.992Q269.526 433.261 269.753 433.542Q269.979 433.822 270.191 434.113Q270.403 434.405 270.601 434.706Q270.798 435.007 270.981 435.318Q271.164 435.628 271.331 435.947Q271.498 436.266 271.649 436.593Q271.801 436.92 271.936 437.254Q272.071 437.588 272.19 437.928Q272.309 438.269 272.411 438.614Q272.513 438.96 272.597 439.31Q272.682 439.66 272.75 440.014Q272.818 440.368 272.868 440.724Q272.918 441.081 272.951 441.44Q272.983 441.799 272.998 442.159Q273.014 442.519 273.011 442.879Q273.008 443.239 272.988 443.599Q272.968 443.959 272.93 444.317Q272.893 444.675 272.837 445.031Q272.782 445.387 272.709 445.74Q272.637 446.093 272.547 446.442Q272.457 446.791 272.35 447.135Q272.243 447.479 272.12 447.818Q271.996 448.156 271.856 448.488Q271.716 448.82 271.56 449.145Q271.404 449.47 271.232 449.786Q271.061 450.103 270.874 450.411Q270.687 450.719 270.485 451.017Q270.283 451.316 270.066 451.604Q269.85 451.892 269.62 452.169Q269.39 452.447 269.147 452.712Q268.903 452.978 268.647 453.231Q268.391 453.485 268.123 453.725Q267.854 453.966 267.575 454.193Q267.295 454.42 267.004 454.633Q266.714 454.846 266.413 455.045Q266.113 455.244 265.803 455.427Q265.493 455.611 265.174 455.779Q264.856 455.948 264.529 456.1Q264.203 456.253 263.869 456.389Q263.536 456.526 263.196 456.645Q262.856 456.765 262.511 456.868Q262.166 456.971 261.816 457.057Q261.466 457.144 261.112 457.212Q260.759 457.281 260.402 457.333Q260.046 457.384 259.687 457.418Q259.328 457.452 258.968 457.468Q258.608 457.484 258.248 457.483Q257.886 457.482 257.525 457.463Q257.163 457.443 256.804 457.406Q256.444 457.37 256.086 457.315Q255.728 457.261 255.374 457.188Q255.019 457.116 254.668 457.027Q254.318 456.938 253.972 456.831Q253.626 456.724 253.286 456.601Q252.946 456.478 252.612 456.338Q252.278 456.198 251.952 456.041Q251.626 455.885 251.307 455.713Q250.989 455.541 250.68 455.353Q250.37 455.166 250.07 454.963Q249.77 454.761 249.481 454.544Q249.191 454.327 248.913 454.096Q248.634 453.865 248.368 453.62Q248.101 453.376 247.846 453.118Q247.592 452.861 247.35 452.592Q247.109 452.322 246.881 452.041Q246.653 451.76 246.439 451.468Q246.225 451.177 246.026 450.875Q245.827 450.573 245.642 450.261Q245.458 449.95 245.29 449.629Q245.121 449.309 244.968 448.981Q244.816 448.653 244.679 448.318Q244.543 447.983 244.423 447.641Q244.303 447.3 244.201 446.953Q244.098 446.606 244.012 446.255Q243.927 445.903 243.858 445.548Q243.79 445.192 243.74 444.834Q243.689 444.476 243.656 444.115Q243.623 443.755 243.608 443.393Q243.592 443.032 243.595 442.67Q243.598 442.308 243.618 441.947Q243.638 441.586 243.676 441.226Q243.714 440.866 243.77 440.508Q243.826 440.151 243.899 439.796Q243.973 439.442 244.063 439.092Q244.154 438.741 244.261 438.396Q244.369 438.05 244.494 437.711Q244.618 437.371 244.76 437.038Q244.901 436.705 245.058 436.379Q245.215 436.053 245.389 435.735Q245.562 435.417 245.75 435.109Q245.939 434.8 246.142 434.501Q246.346 434.201 246.564 433.913Q246.782 433.624 247.014 433.346Q247.246 433.068 247.491 432.802Q247.737 432.536 247.995 432.283Q248.253 432.029 248.523 431.789Q248.793 431.548 249.075 431.321Q249.357 431.094 249.65 430.881Q249.942 430.668 250.245 430.47Q250.548 430.272 250.86 430.089Q251.172 429.905 251.493 429.738Q251.813 429.57 252.142 429.419Q252.471 429.267 252.806 429.132Q253.142 428.997 253.484 428.878Q253.826 428.76 254.173 428.658Q254.52 428.556 254.872 428.472Q255.224 428.387 255.58 428.32Q255.935 428.253 256.294 428.204Q256.652 428.155 257.013 428.123Q257.373 428.091 257.735 428.077Q258.096 428.063 258.458 428.067Z"/>
</svg>
